<svg width="717" height="617" viewBox="0 0 717 617" fill="none" xmlns="http://www.w3.org/2000/svg">
<path fill-rule="evenodd" clip-rule="evenodd" d="M191.667 0C137.834 0 89.155 13.4543 53.822 46.2633C18.154 79.384 0 128.568 0 191.667V425C0 488.1 18.154 537.283 53.822 570.403C89.155 603.213 137.834 616.667 191.667 616.667H525C578.833 616.667 627.513 603.213 662.843 570.403C698.513 537.283 716.667 488.1 716.667 425V191.667C716.667 128.568 698.513 79.384 662.843 46.2633C627.513 13.4543 578.833 0 525 0H191.667ZM599.283 187.077C610.207 178.635 612.22 162.934 603.777 152.009C595.337 141.083 579.637 139.07 568.71 147.512L383.807 290.387C368.803 301.983 347.86 301.983 332.853 290.387L147.953 147.512C137.028 139.07 121.327 141.083 112.885 152.009C104.443 162.934 106.456 178.635 117.381 187.077L302.283 329.953C335.297 355.46 381.367 355.46 414.38 329.953L599.283 187.077Z" fill="white"/>
</svg>
