<svg width="4679" height="1100" viewBox="0 0 4679 1100" fill="none" xmlns="http://www.w3.org/2000/svg">
<path d="M682.77 0L787.045 308.496L1150 339.274L834.992 590.366L853 942.671L542.134 777.452L0 1100L313.192 611.208L85.1017 381.808L464.555 321.377L682.77 0Z" fill="white"/>
<path d="M1336.07 856L1445.79 340.294H1547.64L1506.54 530.78H1508.69C1521.31 511.243 1538.11 495.399 1559.08 483.248C1580.28 470.859 1604.94 464.664 1633.06 464.664C1657.12 464.664 1678.09 469.548 1695.95 479.317C1713.82 489.085 1727.64 502.308 1737.41 518.986C1747.42 535.426 1752.42 554.01 1752.42 574.738C1752.42 581.886 1751.95 589.391 1750.99 597.254C1750.28 604.878 1749.09 612.74 1747.42 620.841L1697.03 856H1595.53L1642.35 637.638C1643.54 631.92 1644.37 626.678 1644.85 621.913C1645.56 616.91 1645.92 612.264 1645.92 607.975C1645.92 590.582 1639.85 576.406 1627.69 565.446C1615.54 554.248 1599.34 548.649 1579.09 548.649C1563.84 548.649 1549.78 552.104 1536.92 559.013C1524.05 565.685 1513.21 574.977 1504.4 586.889C1495.82 598.802 1489.74 612.621 1486.17 628.346L1437.92 856H1336.07Z" fill="white"/>
<path d="M1846.64 622.628H2013.18C2013.42 621.198 2013.54 619.531 2013.54 617.625C2013.78 615.48 2013.9 613.574 2013.9 611.906C2013.9 599.279 2011.16 587.723 2005.68 577.24C2000.2 566.518 1992.1 557.941 1981.38 551.508C1970.89 544.837 1957.55 541.502 1941.35 541.502C1925.62 541.502 1911.33 545.075 1898.46 552.223C1885.84 559.133 1875 568.663 1865.94 580.814C1857.13 592.965 1850.69 606.903 1846.64 622.628ZM1910.61 864.577C1875.11 864.577 1844.62 857.43 1819.12 843.134C1793.87 828.839 1774.45 808.825 1760.87 783.094C1747.53 757.124 1740.86 726.627 1740.86 691.603C1740.86 659.2 1745.74 629.18 1755.51 601.542C1765.28 573.904 1779.22 549.721 1797.32 528.993C1815.43 508.265 1836.99 492.183 1862.01 480.746C1887.03 469.072 1914.66 463.234 1944.92 463.234C1978.04 463.234 2006.87 470.025 2031.41 483.605C2056.19 496.948 2075.37 515.889 2088.95 540.429C2102.77 564.97 2109.68 594.037 2109.68 627.631C2109.68 636.923 2109.2 646.93 2108.25 657.652C2107.53 668.373 2106.22 678.261 2104.32 687.315H1836.28C1836.04 689.459 1835.8 691.603 1835.56 693.747C1835.56 695.654 1835.56 697.56 1835.56 699.466C1835.56 716.382 1838.78 731.273 1845.21 744.139C1851.65 757.004 1860.7 767.13 1872.37 774.516C1884.29 781.664 1898.34 785.238 1914.55 785.238C1934.8 785.238 1952.07 780.592 1966.37 771.3C1980.66 761.77 1990.79 749.261 1996.74 733.774H2092.88C2086.45 759.268 2074.65 781.902 2057.5 801.678C2040.58 821.215 2019.62 836.582 1994.6 847.78C1969.58 858.978 1941.59 864.577 1910.61 864.577Z" fill="white"/>
<path d="M2076.31 856L2186.03 340.294H2288.24L2178.52 856H2076.31Z" fill="white"/>
<path d="M2203.77 856L2313.49 340.294H2415.7L2305.98 856H2203.77Z" fill="white"/>
<path d="M2531.01 780.234C2551.5 780.234 2569.72 774.04 2585.69 761.651C2601.65 749.023 2614.16 731.988 2623.21 710.544C2632.5 688.863 2637.15 664.561 2637.15 637.638C2637.15 610.477 2630.48 588.676 2617.14 572.237C2604.03 555.797 2586.4 547.577 2564.24 547.577C2543.75 547.577 2525.41 553.772 2509.2 566.161C2493.24 578.55 2480.61 595.586 2471.32 617.267C2462.27 638.71 2457.74 663.012 2457.74 690.174C2457.74 717.097 2464.41 738.897 2477.76 755.575C2491.1 772.015 2508.85 780.234 2531.01 780.234ZM2567.82 463.234C2602.6 463.234 2632.98 470.382 2658.95 484.677C2684.92 498.973 2705.05 519.105 2719.35 545.075C2733.88 570.807 2741.15 600.827 2741.15 635.136C2741.15 668.016 2735.79 698.513 2725.07 726.627C2714.58 754.503 2699.69 778.686 2680.39 799.176C2661.33 819.666 2638.82 835.748 2612.85 847.423C2587.11 858.859 2558.76 864.577 2527.79 864.577C2493 864.577 2462.63 857.43 2436.66 843.134C2410.69 828.601 2390.43 808.468 2375.9 782.736C2361.6 756.766 2354.46 726.627 2354.46 692.318C2354.46 659.677 2359.7 629.418 2370.18 601.542C2380.9 573.428 2395.79 549.126 2414.86 528.636C2434.15 507.907 2456.67 491.825 2482.4 480.389C2508.37 468.953 2536.84 463.234 2567.82 463.234Z" fill="white"/>
<path d="M2744.59 856V472.884H2848.95V537.213H2851.09C2858.96 515.293 2872.3 497.782 2891.12 484.677C2910.18 471.573 2932.58 465.021 2958.31 465.021C2976.18 465.021 2992.26 468.119 3006.56 474.313C3020.85 480.508 3032.88 489.443 3042.65 501.117C3052.66 512.792 3059.69 527.087 3063.74 544.003H3065.88C3071.6 527.802 3080.18 513.864 3091.61 502.189C3103.29 490.276 3116.99 481.104 3132.71 474.671C3148.68 468.238 3166.07 465.021 3184.89 465.021C3209.91 465.021 3231.83 470.382 3250.65 481.104C3269.47 491.825 3284.12 506.835 3294.61 526.134C3305.09 545.433 3310.33 568.067 3310.33 594.037V856H3205.98V620.126C3205.98 605.354 3203.47 592.846 3198.47 582.601C3193.71 572.356 3186.68 564.612 3177.39 559.371C3168.33 554.129 3157.01 551.508 3143.43 551.508C3130.33 551.508 3118.77 554.487 3108.77 560.443C3099 566.399 3091.37 574.738 3085.89 585.46C3080.41 596.181 3077.68 608.69 3077.68 622.985V856H2977.25V616.91C2977.25 603.091 2974.75 591.297 2969.74 581.529C2964.74 571.76 2957.59 564.374 2948.3 559.371C2939.25 554.129 2928.29 551.508 2915.42 551.508C2902.32 551.508 2890.76 554.606 2880.76 560.8C2870.75 566.995 2862.89 575.572 2857.17 586.532C2851.69 597.492 2848.95 610.239 2848.95 624.772V856H2744.59Z" fill="white"/>
<path d="M3439.22 862.076C3413.73 862.076 3391.33 857.191 3372.03 847.423C3352.73 837.416 3337.6 823.716 3326.64 806.324C3315.92 788.693 3310.56 768.679 3310.56 746.283V745.568C3310.56 722.219 3316.4 702.325 3328.07 685.885C3339.75 669.207 3356.66 656.103 3378.82 646.573C3400.98 637.042 3427.9 631.205 3459.59 629.061L3608.98 619.769V684.813L3475.32 693.39C3455.3 694.581 3440.05 699.346 3429.57 707.685C3419.09 715.786 3413.85 726.627 3413.85 740.207V740.922C3413.85 754.979 3419.21 766.058 3429.93 774.159C3440.65 782.021 3455.06 785.953 3473.17 785.953C3488.66 785.953 3502.48 782.974 3514.63 777.018C3527.02 770.823 3536.67 762.484 3543.58 752.001C3550.72 741.28 3554.3 729.248 3554.3 715.905V599.755C3554.3 582.839 3548.94 569.497 3538.22 559.728C3527.49 549.721 3511.89 544.718 3491.4 544.718C3471.86 544.718 3456.37 548.768 3444.94 556.869C3433.5 564.97 3426.47 575.215 3423.85 587.604L3423.14 590.821H3327.72L3328.07 586.532C3329.98 562.945 3337.72 541.978 3351.3 523.632C3365.12 505.287 3384.18 490.991 3408.48 480.746C3433.02 470.263 3462.09 465.021 3495.69 465.021C3528.8 465.021 3557.51 470.382 3581.82 481.104C3606.12 491.587 3624.94 506.478 3638.28 525.777C3651.86 545.075 3658.65 567.591 3658.65 593.322V856H3554.3V798.818H3552.15C3545.01 811.923 3535.71 823.24 3524.28 832.77C3513.08 842.062 3500.33 849.329 3486.04 854.57C3471.74 859.574 3456.14 862.076 3439.22 862.076Z" fill="white"/>
<path d="M3674.96 856V472.884H3779.32V539.715H3781.47C3787.18 516.127 3797.55 497.782 3812.56 484.677C3827.57 471.573 3846.27 465.021 3868.67 465.021C3874.39 465.021 3879.87 465.379 3885.11 466.093C3890.35 466.808 3894.88 467.761 3898.69 468.953V560.8C3894.4 559.133 3888.92 557.822 3882.25 556.869C3875.58 555.678 3868.43 555.082 3860.8 555.082C3843.65 555.082 3829 558.418 3816.85 565.089C3804.7 571.76 3795.4 581.529 3788.97 594.395C3782.54 607.26 3779.32 622.985 3779.32 641.569V856H3674.96Z" fill="white"/>
<path d="M4047.95 863.862C4012.68 863.862 3982.66 858.74 3957.88 848.495C3933.11 838.25 3913.69 824.074 3899.63 805.966C3885.81 787.62 3877.47 766.416 3874.61 742.352L3874.26 739.135H3976.11L3976.83 742.352C3980.16 757.362 3987.67 769.036 3999.34 777.375C4011.02 785.714 4027.22 789.884 4047.95 789.884C4061.29 789.884 4072.6 788.335 4081.9 785.238C4091.19 781.902 4098.34 777.256 4103.34 771.3C4108.58 765.343 4111.2 758.196 4111.2 749.857V749.499C4111.2 739.254 4107.51 731.035 4100.12 724.84C4092.74 718.645 4079.63 713.404 4060.81 709.115L3995.77 695.534C3970.99 690.293 3950.26 682.788 3933.58 673.019C3917.14 663.012 3904.75 650.742 3896.41 636.208C3888.08 621.437 3883.91 604.52 3883.91 585.46V585.103C3883.91 560.562 3890.46 539.357 3903.56 521.488C3916.67 503.619 3935.25 489.8 3959.31 480.031C3983.62 470.025 4011.97 465.021 4044.37 465.021C4078.2 465.021 4106.91 470.501 4130.5 481.461C4154.33 492.183 4172.55 506.716 4185.18 525.062C4198.05 543.408 4204.84 563.779 4205.55 586.175V589.749H4109.42L4109.06 586.889C4107.39 573.071 4100.96 561.634 4089.76 552.581C4078.8 543.289 4063.67 538.643 4044.37 538.643C4032.46 538.643 4022.09 540.31 4013.28 543.646C4004.46 546.982 3997.67 551.747 3992.91 557.941C3988.14 563.898 3985.76 571.045 3985.76 579.384V579.742C3985.76 586.175 3987.31 592.012 3990.41 597.254C3993.74 602.257 3999.22 606.665 4006.85 610.477C4014.47 614.289 4024.72 617.625 4037.58 620.484L4102.62 634.422C4142.89 642.761 4171.72 655.269 4189.11 671.947C4206.74 688.625 4215.56 711.021 4215.56 739.135V739.493C4215.56 764.51 4208.41 786.31 4194.12 804.894C4179.82 823.478 4160.04 838.012 4134.79 848.495C4109.77 858.74 4080.82 863.862 4047.95 863.862Z" fill="white"/>
<path d="M4390.19 863.862C4351.12 863.862 4317.52 855.881 4289.41 839.918C4261.29 823.716 4239.61 800.725 4224.36 770.943C4209.35 741.16 4201.85 705.898 4201.85 665.157V664.799C4201.85 624.057 4209.35 588.795 4224.36 559.013C4239.61 528.993 4260.94 505.882 4288.34 489.681C4315.97 473.241 4348.5 465.021 4385.9 465.021C4423.31 465.021 4455.59 473.003 4482.75 488.966C4510.15 504.691 4531.24 526.968 4546.01 555.797C4561.02 584.626 4568.53 618.339 4568.53 656.937V689.101H4252.96V623.343H4519.21L4469.53 684.813V644.786C4469.53 622.39 4466.08 603.687 4459.17 588.676C4452.26 573.428 4442.61 561.992 4430.22 554.367C4418.07 546.743 4403.89 542.931 4387.69 542.931C4371.49 542.931 4357.07 546.862 4344.45 554.725C4332.06 562.587 4322.29 574.143 4315.14 589.391C4308.23 604.401 4304.78 622.866 4304.78 644.786V685.17C4304.78 706.375 4308.23 724.482 4315.14 739.493C4322.29 754.503 4332.41 766.058 4345.52 774.159C4358.62 782.021 4374.23 785.953 4392.34 785.953C4406.63 785.953 4419.02 783.689 4429.5 779.162C4439.99 774.635 4448.56 768.917 4455.23 762.008C4461.91 755.098 4466.43 748.07 4468.82 740.922L4469.53 738.778H4565.31L4564.24 742.709C4561.38 756.766 4555.78 770.942 4547.44 785.238C4539.1 799.533 4527.78 812.637 4513.49 824.55C4499.43 836.463 4482.16 845.993 4461.67 853.141C4441.42 860.289 4417.59 863.862 4390.19 863.862Z" fill="white"/>
<path d="M4573.76 856V340.294H4678.11V856H4573.76Z" fill="white"/>
</svg>
